<svg xmlns="http://www.w3.org/2000/svg" version="1.1" viewBox="0 0 256 256">
  <rect x="0" y="0" width="256" height="256" style="fill:rgb(255,255,255);shape-rendering:crispEdges;"></rect>
  <path x="0" y="0" style="fill:rgb(0,0,0);shape-rendering:crispEdges;" d="M17.96,17.96 V22.46 H22.46 V17.96 H17.96 Z M22.46,17.96 V22.46 H26.95 V17.96 H22.46 Z M26.95,17.96 V22.46 H31.44 V17.96 H26.95 Z M31.44,17.96 V22.46 H35.93 V17.96 H31.44 Z M35.93,17.96 V22.46 H40.42 V17.96 H35.93 Z M40.42,17.96 V22.46 H44.91 V17.96 H40.42 Z M44.91,17.96 V22.46 H49.40 V17.96 H44.91 Z M53.89,17.96 V22.46 H58.39 V17.96 H53.89 Z M71.86,17.96 V22.46 H76.35 V17.96 H71.86 Z M76.35,17.96 V22.46 H80.84 V17.96 H76.35 Z M89.82,17.96 V22.46 H94.32 V17.96 H89.82 Z M94.32,17.96 V22.46 H98.81 V17.96 H94.32 Z M98.81,17.96 V22.46 H103.30 V17.96 H98.81 Z M107.79,17.96 V22.46 H112.28 V17.96 H107.79 Z M121.26,17.96 V22.46 H125.75 V17.96 H121.26 Z M125.75,17.96 V22.46 H130.25 V17.96 H125.75 Z M130.25,17.96 V22.46 H134.74 V17.96 H130.25 Z M134.74,17.96 V22.46 H139.23 V17.96 H134.74 Z M148.21,17.96 V22.46 H152.70 V17.96 H148.21 Z M175.16,17.96 V22.46 H179.65 V17.96 H175.16 Z M197.61,17.96 V22.46 H202.11 V17.96 H197.61 Z M206.60,17.96 V22.46 H211.09 V17.96 H206.60 Z M211.09,17.96 V22.46 H215.58 V17.96 H211.09 Z M215.58,17.96 V22.46 H220.07 V17.96 H215.58 Z M220.07,17.96 V22.46 H224.56 V17.96 H220.07 Z M224.56,17.96 V22.46 H229.05 V17.96 H224.56 Z M229.05,17.96 V22.46 H233.54 V17.96 H229.05 Z M233.54,17.96 V22.46 H238.04 V17.96 H233.54 Z M17.96,22.46 V26.95 H22.46 V22.46 H17.96 Z M44.91,22.46 V26.95 H49.40 V22.46 H44.91 Z M62.88,22.46 V26.95 H67.37 V22.46 H62.88 Z M67.37,22.46 V26.95 H71.86 V22.46 H67.37 Z M76.35,22.46 V26.95 H80.84 V22.46 H76.35 Z M89.82,22.46 V26.95 H94.32 V22.46 H89.82 Z M94.32,22.46 V26.95 H98.81 V22.46 H94.32 Z M103.30,22.46 V26.95 H107.79 V22.46 H103.30 Z M112.28,22.46 V26.95 H116.77 V22.46 H112.28 Z M116.77,22.46 V26.95 H121.26 V22.46 H116.77 Z M121.26,22.46 V26.95 H125.75 V22.46 H121.26 Z M125.75,22.46 V26.95 H130.25 V22.46 H125.75 Z M148.21,22.46 V26.95 H152.70 V22.46 H148.21 Z M157.19,22.46 V26.95 H161.68 V22.46 H157.19 Z M175.16,22.46 V26.95 H179.65 V22.46 H175.16 Z M184.14,22.46 V26.95 H188.63 V22.46 H184.14 Z M188.63,22.46 V26.95 H193.12 V22.46 H188.63 Z M193.12,22.46 V26.95 H197.61 V22.46 H193.12 Z M197.61,22.46 V26.95 H202.11 V22.46 H197.61 Z M206.60,22.46 V26.95 H211.09 V22.46 H206.60 Z M233.54,22.46 V26.95 H238.04 V22.46 H233.54 Z M17.96,26.95 V31.44 H22.46 V26.95 H17.96 Z M26.95,26.95 V31.44 H31.44 V26.95 H26.95 Z M31.44,26.95 V31.44 H35.93 V26.95 H31.44 Z M35.93,26.95 V31.44 H40.42 V26.95 H35.93 Z M44.91,26.95 V31.44 H49.40 V26.95 H44.91 Z M53.89,26.95 V31.44 H58.39 V26.95 H53.89 Z M58.39,26.95 V31.44 H62.88 V26.95 H58.39 Z M62.88,26.95 V31.44 H67.37 V26.95 H62.88 Z M76.35,26.95 V31.44 H80.84 V26.95 H76.35 Z M89.82,26.95 V31.44 H94.32 V26.95 H89.82 Z M94.32,26.95 V31.44 H98.81 V26.95 H94.32 Z M103.30,26.95 V31.44 H107.79 V26.95 H103.30 Z M112.28,26.95 V31.44 H116.77 V26.95 H112.28 Z M125.75,26.95 V31.44 H130.25 V26.95 H125.75 Z M134.74,26.95 V31.44 H139.23 V26.95 H134.74 Z M139.23,26.95 V31.44 H143.72 V26.95 H139.23 Z M148.21,26.95 V31.44 H152.70 V26.95 H148.21 Z M152.70,26.95 V31.44 H157.19 V26.95 H152.70 Z M157.19,26.95 V31.44 H161.68 V26.95 H157.19 Z M175.16,26.95 V31.44 H179.65 V26.95 H175.16 Z M179.65,26.95 V31.44 H184.14 V26.95 H179.65 Z M184.14,26.95 V31.44 H188.63 V26.95 H184.14 Z M193.12,26.95 V31.44 H197.61 V26.95 H193.12 Z M197.61,26.95 V31.44 H202.11 V26.95 H197.61 Z M206.60,26.95 V31.44 H211.09 V26.95 H206.60 Z M215.58,26.95 V31.44 H220.07 V26.95 H215.58 Z M220.07,26.95 V31.44 H224.56 V26.95 H220.07 Z M224.56,26.95 V31.44 H229.05 V26.95 H224.56 Z M233.54,26.95 V31.44 H238.04 V26.95 H233.54 Z M17.96,31.44 V35.93 H22.46 V31.44 H17.96 Z M26.95,31.44 V35.93 H31.44 V31.44 H26.95 Z M31.44,31.44 V35.93 H35.93 V31.44 H31.44 Z M35.93,31.44 V35.93 H40.42 V31.44 H35.93 Z M44.91,31.44 V35.93 H49.40 V31.44 H44.91 Z M53.89,31.44 V35.93 H58.39 V31.44 H53.89 Z M62.88,31.44 V35.93 H67.37 V31.44 H62.88 Z M76.35,31.44 V35.93 H80.84 V31.44 H76.35 Z M80.84,31.44 V35.93 H85.33 V31.44 H80.84 Z M85.33,31.44 V35.93 H89.82 V31.44 H85.33 Z M94.32,31.44 V35.93 H98.81 V31.44 H94.32 Z M103.30,31.44 V35.93 H107.79 V31.44 H103.30 Z M107.79,31.44 V35.93 H112.28 V31.44 H107.79 Z M112.28,31.44 V35.93 H116.77 V31.44 H112.28 Z M121.26,31.44 V35.93 H125.75 V31.44 H121.26 Z M130.25,31.44 V35.93 H134.74 V31.44 H130.25 Z M139.23,31.44 V35.93 H143.72 V31.44 H139.23 Z M143.72,31.44 V35.93 H148.21 V31.44 H143.72 Z M148.21,31.44 V35.93 H152.70 V31.44 H148.21 Z M170.67,31.44 V35.93 H175.16 V31.44 H170.67 Z M175.16,31.44 V35.93 H179.65 V31.44 H175.16 Z M184.14,31.44 V35.93 H188.63 V31.44 H184.14 Z M193.12,31.44 V35.93 H197.61 V31.44 H193.12 Z M206.60,31.44 V35.93 H211.09 V31.44 H206.60 Z M215.58,31.44 V35.93 H220.07 V31.44 H215.58 Z M220.07,31.44 V35.93 H224.56 V31.44 H220.07 Z M224.56,31.44 V35.93 H229.05 V31.44 H224.56 Z M233.54,31.44 V35.93 H238.04 V31.44 H233.54 Z M17.96,35.93 V40.42 H22.46 V35.93 H17.96 Z M26.95,35.93 V40.42 H31.44 V35.93 H26.95 Z M31.44,35.93 V40.42 H35.93 V35.93 H31.44 Z M35.93,35.93 V40.42 H40.42 V35.93 H35.93 Z M44.91,35.93 V40.42 H49.40 V35.93 H44.91 Z M62.88,35.93 V40.42 H67.37 V35.93 H62.88 Z M71.86,35.93 V40.42 H76.35 V35.93 H71.86 Z M76.35,35.93 V40.42 H80.84 V35.93 H76.35 Z M80.84,35.93 V40.42 H85.33 V35.93 H80.84 Z M94.32,35.93 V40.42 H98.81 V35.93 H94.32 Z M98.81,35.93 V40.42 H103.30 V35.93 H98.81 Z M112.28,35.93 V40.42 H116.77 V35.93 H112.28 Z M116.77,35.93 V40.42 H121.26 V35.93 H116.77 Z M121.26,35.93 V40.42 H125.75 V35.93 H121.26 Z M125.75,35.93 V40.42 H130.25 V35.93 H125.75 Z M130.25,35.93 V40.42 H134.74 V35.93 H130.25 Z M134.74,35.93 V40.42 H139.23 V35.93 H134.74 Z M161.68,35.93 V40.42 H166.18 V35.93 H161.68 Z M166.18,35.93 V40.42 H170.67 V35.93 H166.18 Z M175.16,35.93 V40.42 H179.65 V35.93 H175.16 Z M179.65,35.93 V40.42 H184.14 V35.93 H179.65 Z M206.60,35.93 V40.42 H211.09 V35.93 H206.60 Z M215.58,35.93 V40.42 H220.07 V35.93 H215.58 Z M220.07,35.93 V40.42 H224.56 V35.93 H220.07 Z M224.56,35.93 V40.42 H229.05 V35.93 H224.56 Z M233.54,35.93 V40.42 H238.04 V35.93 H233.54 Z M17.96,40.42 V44.91 H22.46 V40.42 H17.96 Z M44.91,40.42 V44.91 H49.40 V40.42 H44.91 Z M53.89,40.42 V44.91 H58.39 V40.42 H53.89 Z M58.39,40.42 V44.91 H62.88 V40.42 H58.39 Z M62.88,40.42 V44.91 H67.37 V40.42 H62.88 Z M76.35,40.42 V44.91 H80.84 V40.42 H76.35 Z M89.82,40.42 V44.91 H94.32 V40.42 H89.82 Z M98.81,40.42 V44.91 H103.30 V40.42 H98.81 Z M107.79,40.42 V44.91 H112.28 V40.42 H107.79 Z M112.28,40.42 V44.91 H116.77 V40.42 H112.28 Z M116.77,40.42 V44.91 H121.26 V40.42 H116.77 Z M134.74,40.42 V44.91 H139.23 V40.42 H134.74 Z M139.23,40.42 V44.91 H143.72 V40.42 H139.23 Z M143.72,40.42 V44.91 H148.21 V40.42 H143.72 Z M152.70,40.42 V44.91 H157.19 V40.42 H152.70 Z M161.68,40.42 V44.91 H166.18 V40.42 H161.68 Z M166.18,40.42 V44.91 H170.67 V40.42 H166.18 Z M175.16,40.42 V44.91 H179.65 V40.42 H175.16 Z M179.65,40.42 V44.91 H184.14 V40.42 H179.65 Z M188.63,40.42 V44.91 H193.12 V40.42 H188.63 Z M206.60,40.42 V44.91 H211.09 V40.42 H206.60 Z M233.54,40.42 V44.91 H238.04 V40.42 H233.54 Z M17.96,44.91 V49.40 H22.46 V44.91 H17.96 Z M22.46,44.91 V49.40 H26.95 V44.91 H22.46 Z M26.95,44.91 V49.40 H31.44 V44.91 H26.95 Z M31.44,44.91 V49.40 H35.93 V44.91 H31.44 Z M35.93,44.91 V49.40 H40.42 V44.91 H35.93 Z M40.42,44.91 V49.40 H44.91 V44.91 H40.42 Z M44.91,44.91 V49.40 H49.40 V44.91 H44.91 Z M53.89,44.91 V49.40 H58.39 V44.91 H53.89 Z M62.88,44.91 V49.40 H67.37 V44.91 H62.88 Z M71.86,44.91 V49.40 H76.35 V44.91 H71.86 Z M80.84,44.91 V49.40 H85.33 V44.91 H80.84 Z M89.82,44.91 V49.40 H94.32 V44.91 H89.82 Z M98.81,44.91 V49.40 H103.30 V44.91 H98.81 Z M107.79,44.91 V49.40 H112.28 V44.91 H107.79 Z M116.77,44.91 V49.40 H121.26 V44.91 H116.77 Z M125.75,44.91 V49.40 H130.25 V44.91 H125.75 Z M134.74,44.91 V49.40 H139.23 V44.91 H134.74 Z M143.72,44.91 V49.40 H148.21 V44.91 H143.72 Z M152.70,44.91 V49.40 H157.19 V44.91 H152.70 Z M161.68,44.91 V49.40 H166.18 V44.91 H161.68 Z M170.67,44.91 V49.40 H175.16 V44.91 H170.67 Z M179.65,44.91 V49.40 H184.14 V44.91 H179.65 Z M188.63,44.91 V49.40 H193.12 V44.91 H188.63 Z M197.61,44.91 V49.40 H202.11 V44.91 H197.61 Z M206.60,44.91 V49.40 H211.09 V44.91 H206.60 Z M211.09,44.91 V49.40 H215.58 V44.91 H211.09 Z M215.58,44.91 V49.40 H220.07 V44.91 H215.58 Z M220.07,44.91 V49.40 H224.56 V44.91 H220.07 Z M224.56,44.91 V49.40 H229.05 V44.91 H224.56 Z M229.05,44.91 V49.40 H233.54 V44.91 H229.05 Z M233.54,44.91 V49.40 H238.04 V44.91 H233.54 Z M53.89,49.40 V53.89 H58.39 V49.40 H53.89 Z M67.37,49.40 V53.89 H71.86 V49.40 H67.37 Z M71.86,49.40 V53.89 H76.35 V49.40 H71.86 Z M76.35,49.40 V53.89 H80.84 V49.40 H76.35 Z M80.84,49.40 V53.89 H85.33 V49.40 H80.84 Z M85.33,49.40 V53.89 H89.82 V49.40 H85.33 Z M94.32,49.40 V53.89 H98.81 V49.40 H94.32 Z M116.77,49.40 V53.89 H121.26 V49.40 H116.77 Z M134.74,49.40 V53.89 H139.23 V49.40 H134.74 Z M157.19,49.40 V53.89 H161.68 V49.40 H157.19 Z M161.68,49.40 V53.89 H166.18 V49.40 H161.68 Z M175.16,49.40 V53.89 H179.65 V49.40 H175.16 Z M193.12,49.40 V53.89 H197.61 V49.40 H193.12 Z M17.96,53.89 V58.39 H22.46 V53.89 H17.96 Z M22.46,53.89 V58.39 H26.95 V53.89 H22.46 Z M31.44,53.89 V58.39 H35.93 V53.89 H31.44 Z M44.91,53.89 V58.39 H49.40 V53.89 H44.91 Z M49.40,53.89 V58.39 H53.89 V53.89 H49.40 Z M58.39,53.89 V58.39 H62.88 V53.89 H58.39 Z M71.86,53.89 V58.39 H76.35 V53.89 H71.86 Z M80.84,53.89 V58.39 H85.33 V53.89 H80.84 Z M85.33,53.89 V58.39 H89.82 V53.89 H85.33 Z M89.82,53.89 V58.39 H94.32 V53.89 H89.82 Z M116.77,53.89 V58.39 H121.26 V53.89 H116.77 Z M121.26,53.89 V58.39 H125.75 V53.89 H121.26 Z M125.75,53.89 V58.39 H130.25 V53.89 H125.75 Z M130.25,53.89 V58.39 H134.74 V53.89 H130.25 Z M134.74,53.89 V58.39 H139.23 V53.89 H134.74 Z M143.72,53.89 V58.39 H148.21 V53.89 H143.72 Z M148.21,53.89 V58.39 H152.70 V53.89 H148.21 Z M152.70,53.89 V58.39 H157.19 V53.89 H152.70 Z M157.19,53.89 V58.39 H161.68 V53.89 H157.19 Z M161.68,53.89 V58.39 H166.18 V53.89 H161.68 Z M166.18,53.89 V58.39 H170.67 V53.89 H166.18 Z M179.65,53.89 V58.39 H184.14 V53.89 H179.65 Z M193.12,53.89 V58.39 H197.61 V53.89 H193.12 Z M197.61,53.89 V58.39 H202.11 V53.89 H197.61 Z M202.11,53.89 V58.39 H206.60 V53.89 H202.11 Z M206.60,53.89 V58.39 H211.09 V53.89 H206.60 Z M211.09,53.89 V58.39 H215.58 V53.89 H211.09 Z M220.07,53.89 V58.39 H224.56 V53.89 H220.07 Z M224.56,53.89 V58.39 H229.05 V53.89 H224.56 Z M233.54,53.89 V58.39 H238.04 V53.89 H233.54 Z M17.96,58.39 V62.88 H22.46 V58.39 H17.96 Z M35.93,58.39 V62.88 H40.42 V58.39 H35.93 Z M40.42,58.39 V62.88 H44.91 V58.39 H40.42 Z M49.40,58.39 V62.88 H53.89 V58.39 H49.40 Z M53.89,58.39 V62.88 H58.39 V58.39 H53.89 Z M67.37,58.39 V62.88 H71.86 V58.39 H67.37 Z M76.35,58.39 V62.88 H80.84 V58.39 H76.35 Z M85.33,58.39 V62.88 H89.82 V58.39 H85.33 Z M89.82,58.39 V62.88 H94.32 V58.39 H89.82 Z M94.32,58.39 V62.88 H98.81 V58.39 H94.32 Z M98.81,58.39 V62.88 H103.30 V58.39 H98.81 Z M103.30,58.39 V62.88 H107.79 V58.39 H103.30 Z M112.28,58.39 V62.88 H116.77 V58.39 H112.28 Z M134.74,58.39 V62.88 H139.23 V58.39 H134.74 Z M139.23,58.39 V62.88 H143.72 V58.39 H139.23 Z M157.19,58.39 V62.88 H161.68 V58.39 H157.19 Z M161.68,58.39 V62.88 H166.18 V58.39 H161.68 Z M170.67,58.39 V62.88 H175.16 V58.39 H170.67 Z M175.16,58.39 V62.88 H179.65 V58.39 H175.16 Z M179.65,58.39 V62.88 H184.14 V58.39 H179.65 Z M188.63,58.39 V62.88 H193.12 V58.39 H188.63 Z M193.12,58.39 V62.88 H197.61 V58.39 H193.12 Z M215.58,58.39 V62.88 H220.07 V58.39 H215.58 Z M220.07,58.39 V62.88 H224.56 V58.39 H220.07 Z M224.56,58.39 V62.88 H229.05 V58.39 H224.56 Z M229.05,58.39 V62.88 H233.54 V58.39 H229.05 Z M17.96,62.88 V67.37 H22.46 V62.88 H17.96 Z M35.93,62.88 V67.37 H40.42 V62.88 H35.93 Z M40.42,62.88 V67.37 H44.91 V62.88 H40.42 Z M44.91,62.88 V67.37 H49.40 V62.88 H44.91 Z M49.40,62.88 V67.37 H53.89 V62.88 H49.40 Z M71.86,62.88 V67.37 H76.35 V62.88 H71.86 Z M103.30,62.88 V67.37 H107.79 V62.88 H103.30 Z M107.79,62.88 V67.37 H112.28 V62.88 H107.79 Z M125.75,62.88 V67.37 H130.25 V62.88 H125.75 Z M134.74,62.88 V67.37 H139.23 V62.88 H134.74 Z M143.72,62.88 V67.37 H148.21 V62.88 H143.72 Z M152.70,62.88 V67.37 H157.19 V62.88 H152.70 Z M161.68,62.88 V67.37 H166.18 V62.88 H161.68 Z M170.67,62.88 V67.37 H175.16 V62.88 H170.67 Z M188.63,62.88 V67.37 H193.12 V62.88 H188.63 Z M206.60,62.88 V67.37 H211.09 V62.88 H206.60 Z M211.09,62.88 V67.37 H215.58 V62.88 H211.09 Z M215.58,62.88 V67.37 H220.07 V62.88 H215.58 Z M224.56,62.88 V67.37 H229.05 V62.88 H224.56 Z M17.96,67.37 V71.86 H22.46 V67.37 H17.96 Z M26.95,67.37 V71.86 H31.44 V67.37 H26.95 Z M31.44,67.37 V71.86 H35.93 V67.37 H31.44 Z M40.42,67.37 V71.86 H44.91 V67.37 H40.42 Z M53.89,67.37 V71.86 H58.39 V67.37 H53.89 Z M58.39,67.37 V71.86 H62.88 V67.37 H58.39 Z M67.37,67.37 V71.86 H71.86 V67.37 H67.37 Z M76.35,67.37 V71.86 H80.84 V67.37 H76.35 Z M80.84,67.37 V71.86 H85.33 V67.37 H80.84 Z M85.33,67.37 V71.86 H89.82 V67.37 H85.33 Z M94.32,67.37 V71.86 H98.81 V67.37 H94.32 Z M98.81,67.37 V71.86 H103.30 V67.37 H98.81 Z M103.30,67.37 V71.86 H107.79 V67.37 H103.30 Z M130.25,67.37 V71.86 H134.74 V67.37 H130.25 Z M134.74,67.37 V71.86 H139.23 V67.37 H134.74 Z M139.23,67.37 V71.86 H143.72 V67.37 H139.23 Z M143.72,67.37 V71.86 H148.21 V67.37 H143.72 Z M148.21,67.37 V71.86 H152.70 V67.37 H148.21 Z M152.70,67.37 V71.86 H157.19 V67.37 H152.70 Z M157.19,67.37 V71.86 H161.68 V67.37 H157.19 Z M166.18,67.37 V71.86 H170.67 V67.37 H166.18 Z M170.67,67.37 V71.86 H175.16 V67.37 H170.67 Z M184.14,67.37 V71.86 H188.63 V67.37 H184.14 Z M193.12,67.37 V71.86 H197.61 V67.37 H193.12 Z M197.61,67.37 V71.86 H202.11 V67.37 H197.61 Z M202.11,67.37 V71.86 H206.60 V67.37 H202.11 Z M206.60,67.37 V71.86 H211.09 V67.37 H206.60 Z M215.58,67.37 V71.86 H220.07 V67.37 H215.58 Z M220.07,67.37 V71.86 H224.56 V67.37 H220.07 Z M233.54,67.37 V71.86 H238.04 V67.37 H233.54 Z M17.96,71.86 V76.35 H22.46 V71.86 H17.96 Z M22.46,71.86 V76.35 H26.95 V71.86 H22.46 Z M26.95,71.86 V76.35 H31.44 V71.86 H26.95 Z M31.44,71.86 V76.35 H35.93 V71.86 H31.44 Z M35.93,71.86 V76.35 H40.42 V71.86 H35.93 Z M44.91,71.86 V76.35 H49.40 V71.86 H44.91 Z M53.89,71.86 V76.35 H58.39 V71.86 H53.89 Z M62.88,71.86 V76.35 H67.37 V71.86 H62.88 Z M67.37,71.86 V76.35 H71.86 V71.86 H67.37 Z M76.35,71.86 V76.35 H80.84 V71.86 H76.35 Z M80.84,71.86 V76.35 H85.33 V71.86 H80.84 Z M94.32,71.86 V76.35 H98.81 V71.86 H94.32 Z M98.81,71.86 V76.35 H103.30 V71.86 H98.81 Z M103.30,71.86 V76.35 H107.79 V71.86 H103.30 Z M116.77,71.86 V76.35 H121.26 V71.86 H116.77 Z M121.26,71.86 V76.35 H125.75 V71.86 H121.26 Z M125.75,71.86 V76.35 H130.25 V71.86 H125.75 Z M130.25,71.86 V76.35 H134.74 V71.86 H130.25 Z M139.23,71.86 V76.35 H143.72 V71.86 H139.23 Z M143.72,71.86 V76.35 H148.21 V71.86 H143.72 Z M148.21,71.86 V76.35 H152.70 V71.86 H148.21 Z M170.67,71.86 V76.35 H175.16 V71.86 H170.67 Z M179.65,71.86 V76.35 H184.14 V71.86 H179.65 Z M188.63,71.86 V76.35 H193.12 V71.86 H188.63 Z M197.61,71.86 V76.35 H202.11 V71.86 H197.61 Z M211.09,71.86 V76.35 H215.58 V71.86 H211.09 Z M215.58,71.86 V76.35 H220.07 V71.86 H215.58 Z M224.56,71.86 V76.35 H229.05 V71.86 H224.56 Z M17.96,76.35 V80.84 H22.46 V76.35 H17.96 Z M26.95,76.35 V80.84 H31.44 V76.35 H26.95 Z M35.93,76.35 V80.84 H40.42 V76.35 H35.93 Z M40.42,76.35 V80.84 H44.91 V76.35 H40.42 Z M49.40,76.35 V80.84 H53.89 V76.35 H49.40 Z M53.89,76.35 V80.84 H58.39 V76.35 H53.89 Z M71.86,76.35 V80.84 H76.35 V76.35 H71.86 Z M80.84,76.35 V80.84 H85.33 V76.35 H80.84 Z M98.81,76.35 V80.84 H103.30 V76.35 H98.81 Z M103.30,76.35 V80.84 H107.79 V76.35 H103.30 Z M107.79,76.35 V80.84 H112.28 V76.35 H107.79 Z M125.75,76.35 V80.84 H130.25 V76.35 H125.75 Z M139.23,76.35 V80.84 H143.72 V76.35 H139.23 Z M148.21,76.35 V80.84 H152.70 V76.35 H148.21 Z M152.70,76.35 V80.84 H157.19 V76.35 H152.70 Z M157.19,76.35 V80.84 H161.68 V76.35 H157.19 Z M166.18,76.35 V80.84 H170.67 V76.35 H166.18 Z M170.67,76.35 V80.84 H175.16 V76.35 H170.67 Z M175.16,76.35 V80.84 H179.65 V76.35 H175.16 Z M184.14,76.35 V80.84 H188.63 V76.35 H184.14 Z M193.12,76.35 V80.84 H197.61 V76.35 H193.12 Z M197.61,76.35 V80.84 H202.11 V76.35 H197.61 Z M211.09,76.35 V80.84 H215.58 V76.35 H211.09 Z M215.58,76.35 V80.84 H220.07 V76.35 H215.58 Z M224.56,76.35 V80.84 H229.05 V76.35 H224.56 Z M17.96,80.84 V85.33 H22.46 V80.84 H17.96 Z M35.93,80.84 V85.33 H40.42 V80.84 H35.93 Z M40.42,80.84 V85.33 H44.91 V80.84 H40.42 Z M44.91,80.84 V85.33 H49.40 V80.84 H44.91 Z M53.89,80.84 V85.33 H58.39 V80.84 H53.89 Z M58.39,80.84 V85.33 H62.88 V80.84 H58.39 Z M71.86,80.84 V85.33 H76.35 V80.84 H71.86 Z M80.84,80.84 V85.33 H85.33 V80.84 H80.84 Z M89.82,80.84 V85.33 H94.32 V80.84 H89.82 Z M94.32,80.84 V85.33 H98.81 V80.84 H94.32 Z M112.28,80.84 V85.33 H116.77 V80.84 H112.28 Z M125.75,80.84 V85.33 H130.25 V80.84 H125.75 Z M134.74,80.84 V85.33 H139.23 V80.84 H134.74 Z M139.23,80.84 V85.33 H143.72 V80.84 H139.23 Z M143.72,80.84 V85.33 H148.21 V80.84 H143.72 Z M152.70,80.84 V85.33 H157.19 V80.84 H152.70 Z M175.16,80.84 V85.33 H179.65 V80.84 H175.16 Z M184.14,80.84 V85.33 H188.63 V80.84 H184.14 Z M188.63,80.84 V85.33 H193.12 V80.84 H188.63 Z M197.61,80.84 V85.33 H202.11 V80.84 H197.61 Z M202.11,80.84 V85.33 H206.60 V80.84 H202.11 Z M220.07,80.84 V85.33 H224.56 V80.84 H220.07 Z M233.54,80.84 V85.33 H238.04 V80.84 H233.54 Z M26.95,85.33 V89.82 H31.44 V85.33 H26.95 Z M31.44,85.33 V89.82 H35.93 V85.33 H31.44 Z M35.93,85.33 V89.82 H40.42 V85.33 H35.93 Z M58.39,85.33 V89.82 H62.88 V85.33 H58.39 Z M62.88,85.33 V89.82 H67.37 V85.33 H62.88 Z M67.37,85.33 V89.82 H71.86 V85.33 H67.37 Z M71.86,85.33 V89.82 H76.35 V85.33 H71.86 Z M80.84,85.33 V89.82 H85.33 V85.33 H80.84 Z M85.33,85.33 V89.82 H89.82 V85.33 H85.33 Z M89.82,85.33 V89.82 H94.32 V85.33 H89.82 Z M98.81,85.33 V89.82 H103.30 V85.33 H98.81 Z M103.30,85.33 V89.82 H107.79 V85.33 H103.30 Z M107.79,85.33 V89.82 H112.28 V85.33 H107.79 Z M112.28,85.33 V89.82 H116.77 V85.33 H112.28 Z M116.77,85.33 V89.82 H121.26 V85.33 H116.77 Z M139.23,85.33 V89.82 H143.72 V85.33 H139.23 Z M161.68,85.33 V89.82 H166.18 V85.33 H161.68 Z M179.65,85.33 V89.82 H184.14 V85.33 H179.65 Z M184.14,85.33 V89.82 H188.63 V85.33 H184.14 Z M188.63,85.33 V89.82 H193.12 V85.33 H188.63 Z M193.12,85.33 V89.82 H197.61 V85.33 H193.12 Z M202.11,85.33 V89.82 H206.60 V85.33 H202.11 Z M211.09,85.33 V89.82 H215.58 V85.33 H211.09 Z M220.07,85.33 V89.82 H224.56 V85.33 H220.07 Z M229.05,85.33 V89.82 H233.54 V85.33 H229.05 Z M17.96,89.82 V94.32 H22.46 V89.82 H17.96 Z M22.46,89.82 V94.32 H26.95 V89.82 H22.46 Z M26.95,89.82 V94.32 H31.44 V89.82 H26.95 Z M31.44,89.82 V94.32 H35.93 V89.82 H31.44 Z M35.93,89.82 V94.32 H40.42 V89.82 H35.93 Z M40.42,89.82 V94.32 H44.91 V89.82 H40.42 Z M44.91,89.82 V94.32 H49.40 V89.82 H44.91 Z M49.40,89.82 V94.32 H53.89 V89.82 H49.40 Z M58.39,89.82 V94.32 H62.88 V89.82 H58.39 Z M76.35,89.82 V94.32 H80.84 V89.82 H76.35 Z M85.33,89.82 V94.32 H89.82 V89.82 H85.33 Z M89.82,89.82 V94.32 H94.32 V89.82 H89.82 Z M103.30,89.82 V94.32 H107.79 V89.82 H103.30 Z M107.79,89.82 V94.32 H112.28 V89.82 H107.79 Z M116.77,89.82 V94.32 H121.26 V89.82 H116.77 Z M139.23,89.82 V94.32 H143.72 V89.82 H139.23 Z M157.19,89.82 V94.32 H161.68 V89.82 H157.19 Z M161.68,89.82 V94.32 H166.18 V89.82 H161.68 Z M170.67,89.82 V94.32 H175.16 V89.82 H170.67 Z M175.16,89.82 V94.32 H179.65 V89.82 H175.16 Z M179.65,89.82 V94.32 H184.14 V89.82 H179.65 Z M184.14,89.82 V94.32 H188.63 V89.82 H184.14 Z M188.63,89.82 V94.32 H193.12 V89.82 H188.63 Z M197.61,89.82 V94.32 H202.11 V89.82 H197.61 Z M206.60,89.82 V94.32 H211.09 V89.82 H206.60 Z M215.58,89.82 V94.32 H220.07 V89.82 H215.58 Z M229.05,89.82 V94.32 H233.54 V89.82 H229.05 Z M26.95,94.32 V98.81 H31.44 V94.32 H26.95 Z M31.44,94.32 V98.81 H35.93 V94.32 H31.44 Z M40.42,94.32 V98.81 H44.91 V94.32 H40.42 Z M58.39,94.32 V98.81 H62.88 V94.32 H58.39 Z M67.37,94.32 V98.81 H71.86 V94.32 H67.37 Z M76.35,94.32 V98.81 H80.84 V94.32 H76.35 Z M80.84,94.32 V98.81 H85.33 V94.32 H80.84 Z M112.28,94.32 V98.81 H116.77 V94.32 H112.28 Z M116.77,94.32 V98.81 H121.26 V94.32 H116.77 Z M139.23,94.32 V98.81 H143.72 V94.32 H139.23 Z M143.72,94.32 V98.81 H148.21 V94.32 H143.72 Z M161.68,94.32 V98.81 H166.18 V94.32 H161.68 Z M170.67,94.32 V98.81 H175.16 V94.32 H170.67 Z M179.65,94.32 V98.81 H184.14 V94.32 H179.65 Z M184.14,94.32 V98.81 H188.63 V94.32 H184.14 Z M188.63,94.32 V98.81 H193.12 V94.32 H188.63 Z M202.11,94.32 V98.81 H206.60 V94.32 H202.11 Z M206.60,94.32 V98.81 H211.09 V94.32 H206.60 Z M211.09,94.32 V98.81 H215.58 V94.32 H211.09 Z M220.07,94.32 V98.81 H224.56 V94.32 H220.07 Z M229.05,94.32 V98.81 H233.54 V94.32 H229.05 Z M17.96,98.81 V103.30 H22.46 V98.81 H17.96 Z M40.42,98.81 V103.30 H44.91 V98.81 H40.42 Z M44.91,98.81 V103.30 H49.40 V98.81 H44.91 Z M49.40,98.81 V103.30 H53.89 V98.81 H49.40 Z M58.39,98.81 V103.30 H62.88 V98.81 H58.39 Z M62.88,98.81 V103.30 H67.37 V98.81 H62.88 Z M67.37,98.81 V103.30 H71.86 V98.81 H67.37 Z M116.77,98.81 V103.30 H121.26 V98.81 H116.77 Z M121.26,98.81 V103.30 H125.75 V98.81 H121.26 Z M125.75,98.81 V103.30 H130.25 V98.81 H125.75 Z M134.74,98.81 V103.30 H139.23 V98.81 H134.74 Z M139.23,98.81 V103.30 H143.72 V98.81 H139.23 Z M143.72,98.81 V103.30 H148.21 V98.81 H143.72 Z M148.21,98.81 V103.30 H152.70 V98.81 H148.21 Z M157.19,98.81 V103.30 H161.68 V98.81 H157.19 Z M161.68,98.81 V103.30 H166.18 V98.81 H161.68 Z M166.18,98.81 V103.30 H170.67 V98.81 H166.18 Z M170.67,98.81 V103.30 H175.16 V98.81 H170.67 Z M179.65,98.81 V103.30 H184.14 V98.81 H179.65 Z M188.63,98.81 V103.30 H193.12 V98.81 H188.63 Z M193.12,98.81 V103.30 H197.61 V98.81 H193.12 Z M197.61,98.81 V103.30 H202.11 V98.81 H197.61 Z M202.11,98.81 V103.30 H206.60 V98.81 H202.11 Z M206.60,98.81 V103.30 H211.09 V98.81 H206.60 Z M215.58,98.81 V103.30 H220.07 V98.81 H215.58 Z M220.07,98.81 V103.30 H224.56 V98.81 H220.07 Z M26.95,103.30 V107.79 H31.44 V103.30 H26.95 Z M35.93,103.30 V107.79 H40.42 V103.30 H35.93 Z M40.42,103.30 V107.79 H44.91 V103.30 H40.42 Z M49.40,103.30 V107.79 H53.89 V103.30 H49.40 Z M53.89,103.30 V107.79 H58.39 V103.30 H53.89 Z M58.39,103.30 V107.79 H62.88 V103.30 H58.39 Z M67.37,103.30 V107.79 H71.86 V103.30 H67.37 Z M71.86,103.30 V107.79 H76.35 V103.30 H71.86 Z M89.82,103.30 V107.79 H94.32 V103.30 H89.82 Z M98.81,103.30 V107.79 H103.30 V103.30 H98.81 Z M103.30,103.30 V107.79 H107.79 V103.30 H103.30 Z M107.79,103.30 V107.79 H112.28 V103.30 H107.79 Z M112.28,103.30 V107.79 H116.77 V103.30 H112.28 Z M125.75,103.30 V107.79 H130.25 V103.30 H125.75 Z M130.25,103.30 V107.79 H134.74 V103.30 H130.25 Z M134.74,103.30 V107.79 H139.23 V103.30 H134.74 Z M139.23,103.30 V107.79 H143.72 V103.30 H139.23 Z M157.19,103.30 V107.79 H161.68 V103.30 H157.19 Z M166.18,103.30 V107.79 H170.67 V103.30 H166.18 Z M170.67,103.30 V107.79 H175.16 V103.30 H170.67 Z M179.65,103.30 V107.79 H184.14 V103.30 H179.65 Z M184.14,103.30 V107.79 H188.63 V103.30 H184.14 Z M193.12,103.30 V107.79 H197.61 V103.30 H193.12 Z M206.60,103.30 V107.79 H211.09 V103.30 H206.60 Z M211.09,103.30 V107.79 H215.58 V103.30 H211.09 Z M224.56,103.30 V107.79 H229.05 V103.30 H224.56 Z M229.05,103.30 V107.79 H233.54 V103.30 H229.05 Z M17.96,107.79 V112.28 H22.46 V107.79 H17.96 Z M40.42,107.79 V112.28 H44.91 V107.79 H40.42 Z M44.91,107.79 V112.28 H49.40 V107.79 H44.91 Z M53.89,107.79 V112.28 H58.39 V107.79 H53.89 Z M76.35,107.79 V112.28 H80.84 V107.79 H76.35 Z M103.30,107.79 V112.28 H107.79 V107.79 H103.30 Z M107.79,107.79 V112.28 H112.28 V107.79 H107.79 Z M116.77,107.79 V112.28 H121.26 V107.79 H116.77 Z M125.75,107.79 V112.28 H130.25 V107.79 H125.75 Z M130.25,107.79 V112.28 H134.74 V107.79 H130.25 Z M134.74,107.79 V112.28 H139.23 V107.79 H134.74 Z M139.23,107.79 V112.28 H143.72 V107.79 H139.23 Z M143.72,107.79 V112.28 H148.21 V107.79 H143.72 Z M148.21,107.79 V112.28 H152.70 V107.79 H148.21 Z M152.70,107.79 V112.28 H157.19 V107.79 H152.70 Z M161.68,107.79 V112.28 H166.18 V107.79 H161.68 Z M170.67,107.79 V112.28 H175.16 V107.79 H170.67 Z M175.16,107.79 V112.28 H179.65 V107.79 H175.16 Z M179.65,107.79 V112.28 H184.14 V107.79 H179.65 Z M184.14,107.79 V112.28 H188.63 V107.79 H184.14 Z M188.63,107.79 V112.28 H193.12 V107.79 H188.63 Z M193.12,107.79 V112.28 H197.61 V107.79 H193.12 Z M211.09,107.79 V112.28 H215.58 V107.79 H211.09 Z M224.56,107.79 V112.28 H229.05 V107.79 H224.56 Z M233.54,107.79 V112.28 H238.04 V107.79 H233.54 Z M40.42,112.28 V116.77 H44.91 V112.28 H40.42 Z M49.40,112.28 V116.77 H53.89 V112.28 H49.40 Z M62.88,112.28 V116.77 H67.37 V112.28 H62.88 Z M67.37,112.28 V116.77 H71.86 V112.28 H67.37 Z M80.84,112.28 V116.77 H85.33 V112.28 H80.84 Z M85.33,112.28 V116.77 H89.82 V112.28 H85.33 Z M89.82,112.28 V116.77 H94.32 V112.28 H89.82 Z M94.32,112.28 V116.77 H98.81 V112.28 H94.32 Z M98.81,112.28 V116.77 H103.30 V112.28 H98.81 Z M103.30,112.28 V116.77 H107.79 V112.28 H103.30 Z M107.79,112.28 V116.77 H112.28 V112.28 H107.79 Z M112.28,112.28 V116.77 H116.77 V112.28 H112.28 Z M121.26,112.28 V116.77 H125.75 V112.28 H121.26 Z M125.75,112.28 V116.77 H130.25 V112.28 H125.75 Z M130.25,112.28 V116.77 H134.74 V112.28 H130.25 Z M134.74,112.28 V116.77 H139.23 V112.28 H134.74 Z M139.23,112.28 V116.77 H143.72 V112.28 H139.23 Z M157.19,112.28 V116.77 H161.68 V112.28 H157.19 Z M161.68,112.28 V116.77 H166.18 V112.28 H161.68 Z M179.65,112.28 V116.77 H184.14 V112.28 H179.65 Z M188.63,112.28 V116.77 H193.12 V112.28 H188.63 Z M197.61,112.28 V116.77 H202.11 V112.28 H197.61 Z M202.11,112.28 V116.77 H206.60 V112.28 H202.11 Z M206.60,112.28 V116.77 H211.09 V112.28 H206.60 Z M220.07,112.28 V116.77 H224.56 V112.28 H220.07 Z M233.54,112.28 V116.77 H238.04 V112.28 H233.54 Z M22.46,116.77 V121.26 H26.95 V116.77 H22.46 Z M26.95,116.77 V121.26 H31.44 V116.77 H26.95 Z M35.93,116.77 V121.26 H40.42 V116.77 H35.93 Z M40.42,116.77 V121.26 H44.91 V116.77 H40.42 Z M44.91,116.77 V121.26 H49.40 V116.77 H44.91 Z M49.40,116.77 V121.26 H53.89 V116.77 H49.40 Z M53.89,116.77 V121.26 H58.39 V116.77 H53.89 Z M58.39,116.77 V121.26 H62.88 V116.77 H58.39 Z M67.37,116.77 V121.26 H71.86 V116.77 H67.37 Z M71.86,116.77 V121.26 H76.35 V116.77 H71.86 Z M80.84,116.77 V121.26 H85.33 V116.77 H80.84 Z M98.81,116.77 V121.26 H103.30 V116.77 H98.81 Z M112.28,116.77 V121.26 H116.77 V116.77 H112.28 Z M116.77,116.77 V121.26 H121.26 V116.77 H116.77 Z M121.26,116.77 V121.26 H125.75 V116.77 H121.26 Z M125.75,116.77 V121.26 H130.25 V116.77 H125.75 Z M130.25,116.77 V121.26 H134.74 V116.77 H130.25 Z M134.74,116.77 V121.26 H139.23 V116.77 H134.74 Z M143.72,116.77 V121.26 H148.21 V116.77 H143.72 Z M152.70,116.77 V121.26 H157.19 V116.77 H152.70 Z M157.19,116.77 V121.26 H161.68 V116.77 H157.19 Z M170.67,116.77 V121.26 H175.16 V116.77 H170.67 Z M175.16,116.77 V121.26 H179.65 V116.77 H175.16 Z M179.65,116.77 V121.26 H184.14 V116.77 H179.65 Z M197.61,116.77 V121.26 H202.11 V116.77 H197.61 Z M202.11,116.77 V121.26 H206.60 V116.77 H202.11 Z M206.60,116.77 V121.26 H211.09 V116.77 H206.60 Z M211.09,116.77 V121.26 H215.58 V116.77 H211.09 Z M215.58,116.77 V121.26 H220.07 V116.77 H215.58 Z M220.07,116.77 V121.26 H224.56 V116.77 H220.07 Z M224.56,116.77 V121.26 H229.05 V116.77 H224.56 Z M229.05,116.77 V121.26 H233.54 V116.77 H229.05 Z M17.96,121.26 V125.75 H22.46 V121.26 H17.96 Z M31.44,121.26 V125.75 H35.93 V121.26 H31.44 Z M35.93,121.26 V125.75 H40.42 V121.26 H35.93 Z M53.89,121.26 V125.75 H58.39 V121.26 H53.89 Z M71.86,121.26 V125.75 H76.35 V121.26 H71.86 Z M76.35,121.26 V125.75 H80.84 V121.26 H76.35 Z M94.32,121.26 V125.75 H98.81 V121.26 H94.32 Z M98.81,121.26 V125.75 H103.30 V121.26 H98.81 Z M103.30,121.26 V125.75 H107.79 V121.26 H103.30 Z M107.79,121.26 V125.75 H112.28 V121.26 H107.79 Z M112.28,121.26 V125.75 H116.77 V121.26 H112.28 Z M116.77,121.26 V125.75 H121.26 V121.26 H116.77 Z M134.74,121.26 V125.75 H139.23 V121.26 H134.74 Z M152.70,121.26 V125.75 H157.19 V121.26 H152.70 Z M157.19,121.26 V125.75 H161.68 V121.26 H157.19 Z M161.68,121.26 V125.75 H166.18 V121.26 H161.68 Z M166.18,121.26 V125.75 H170.67 V121.26 H166.18 Z M175.16,121.26 V125.75 H179.65 V121.26 H175.16 Z M188.63,121.26 V125.75 H193.12 V121.26 H188.63 Z M193.12,121.26 V125.75 H197.61 V121.26 H193.12 Z M197.61,121.26 V125.75 H202.11 V121.26 H197.61 Z M215.58,121.26 V125.75 H220.07 V121.26 H215.58 Z M22.46,125.75 V130.25 H26.95 V125.75 H22.46 Z M35.93,125.75 V130.25 H40.42 V125.75 H35.93 Z M44.91,125.75 V130.25 H49.40 V125.75 H44.91 Z M53.89,125.75 V130.25 H58.39 V125.75 H53.89 Z M62.88,125.75 V130.25 H67.37 V125.75 H62.88 Z M67.37,125.75 V130.25 H71.86 V125.75 H67.37 Z M71.86,125.75 V130.25 H76.35 V125.75 H71.86 Z M76.35,125.75 V130.25 H80.84 V125.75 H76.35 Z M103.30,125.75 V130.25 H107.79 V125.75 H103.30 Z M116.77,125.75 V130.25 H121.26 V125.75 H116.77 Z M125.75,125.75 V130.25 H130.25 V125.75 H125.75 Z M134.74,125.75 V130.25 H139.23 V125.75 H134.74 Z M139.23,125.75 V130.25 H143.72 V125.75 H139.23 Z M152.70,125.75 V130.25 H157.19 V125.75 H152.70 Z M161.68,125.75 V130.25 H166.18 V125.75 H161.68 Z M166.18,125.75 V130.25 H170.67 V125.75 H166.18 Z M188.63,125.75 V130.25 H193.12 V125.75 H188.63 Z M197.61,125.75 V130.25 H202.11 V125.75 H197.61 Z M206.60,125.75 V130.25 H211.09 V125.75 H206.60 Z M215.58,125.75 V130.25 H220.07 V125.75 H215.58 Z M229.05,125.75 V130.25 H233.54 V125.75 H229.05 Z M233.54,125.75 V130.25 H238.04 V125.75 H233.54 Z M17.96,130.25 V134.74 H22.46 V130.25 H17.96 Z M26.95,130.25 V134.74 H31.44 V130.25 H26.95 Z M31.44,130.25 V134.74 H35.93 V130.25 H31.44 Z M35.93,130.25 V134.74 H40.42 V130.25 H35.93 Z M53.89,130.25 V134.74 H58.39 V130.25 H53.89 Z M58.39,130.25 V134.74 H62.88 V130.25 H58.39 Z M76.35,130.25 V134.74 H80.84 V130.25 H76.35 Z M80.84,130.25 V134.74 H85.33 V130.25 H80.84 Z M85.33,130.25 V134.74 H89.82 V130.25 H85.33 Z M89.82,130.25 V134.74 H94.32 V130.25 H89.82 Z M98.81,130.25 V134.74 H103.30 V130.25 H98.81 Z M116.77,130.25 V134.74 H121.26 V130.25 H116.77 Z M134.74,130.25 V134.74 H139.23 V130.25 H134.74 Z M139.23,130.25 V134.74 H143.72 V130.25 H139.23 Z M143.72,130.25 V134.74 H148.21 V130.25 H143.72 Z M152.70,130.25 V134.74 H157.19 V130.25 H152.70 Z M157.19,130.25 V134.74 H161.68 V130.25 H157.19 Z M175.16,130.25 V134.74 H179.65 V130.25 H175.16 Z M179.65,130.25 V134.74 H184.14 V130.25 H179.65 Z M197.61,130.25 V134.74 H202.11 V130.25 H197.61 Z M215.58,130.25 V134.74 H220.07 V130.25 H215.58 Z M220.07,130.25 V134.74 H224.56 V130.25 H220.07 Z M17.96,134.74 V139.23 H22.46 V134.74 H17.96 Z M22.46,134.74 V139.23 H26.95 V134.74 H22.46 Z M31.44,134.74 V139.23 H35.93 V134.74 H31.44 Z M35.93,134.74 V139.23 H40.42 V134.74 H35.93 Z M40.42,134.74 V139.23 H44.91 V134.74 H40.42 Z M44.91,134.74 V139.23 H49.40 V134.74 H44.91 Z M49.40,134.74 V139.23 H53.89 V134.74 H49.40 Z M53.89,134.74 V139.23 H58.39 V134.74 H53.89 Z M76.35,134.74 V139.23 H80.84 V134.74 H76.35 Z M80.84,134.74 V139.23 H85.33 V134.74 H80.84 Z M85.33,134.74 V139.23 H89.82 V134.74 H85.33 Z M98.81,134.74 V139.23 H103.30 V134.74 H98.81 Z M103.30,134.74 V139.23 H107.79 V134.74 H103.30 Z M116.77,134.74 V139.23 H121.26 V134.74 H116.77 Z M121.26,134.74 V139.23 H125.75 V134.74 H121.26 Z M125.75,134.74 V139.23 H130.25 V134.74 H125.75 Z M130.25,134.74 V139.23 H134.74 V134.74 H130.25 Z M134.74,134.74 V139.23 H139.23 V134.74 H134.74 Z M143.72,134.74 V139.23 H148.21 V134.74 H143.72 Z M161.68,134.74 V139.23 H166.18 V134.74 H161.68 Z M170.67,134.74 V139.23 H175.16 V134.74 H170.67 Z M175.16,134.74 V139.23 H179.65 V134.74 H175.16 Z M184.14,134.74 V139.23 H188.63 V134.74 H184.14 Z M193.12,134.74 V139.23 H197.61 V134.74 H193.12 Z M197.61,134.74 V139.23 H202.11 V134.74 H197.61 Z M202.11,134.74 V139.23 H206.60 V134.74 H202.11 Z M206.60,134.74 V139.23 H211.09 V134.74 H206.60 Z M211.09,134.74 V139.23 H215.58 V134.74 H211.09 Z M215.58,134.74 V139.23 H220.07 V134.74 H215.58 Z M220.07,134.74 V139.23 H224.56 V134.74 H220.07 Z M229.05,134.74 V139.23 H233.54 V134.74 H229.05 Z M17.96,139.23 V143.72 H22.46 V139.23 H17.96 Z M22.46,139.23 V143.72 H26.95 V139.23 H22.46 Z M31.44,139.23 V143.72 H35.93 V139.23 H31.44 Z M40.42,139.23 V143.72 H44.91 V139.23 H40.42 Z M53.89,139.23 V143.72 H58.39 V139.23 H53.89 Z M62.88,139.23 V143.72 H67.37 V139.23 H62.88 Z M67.37,139.23 V143.72 H71.86 V139.23 H67.37 Z M76.35,139.23 V143.72 H80.84 V139.23 H76.35 Z M80.84,139.23 V143.72 H85.33 V139.23 H80.84 Z M94.32,139.23 V143.72 H98.81 V139.23 H94.32 Z M98.81,139.23 V143.72 H103.30 V139.23 H98.81 Z M107.79,139.23 V143.72 H112.28 V139.23 H107.79 Z M125.75,139.23 V143.72 H130.25 V139.23 H125.75 Z M130.25,139.23 V143.72 H134.74 V139.23 H130.25 Z M134.74,139.23 V143.72 H139.23 V139.23 H134.74 Z M143.72,139.23 V143.72 H148.21 V139.23 H143.72 Z M152.70,139.23 V143.72 H157.19 V139.23 H152.70 Z M161.68,139.23 V143.72 H166.18 V139.23 H161.68 Z M166.18,139.23 V143.72 H170.67 V139.23 H166.18 Z M170.67,139.23 V143.72 H175.16 V139.23 H170.67 Z M193.12,139.23 V143.72 H197.61 V139.23 H193.12 Z M197.61,139.23 V143.72 H202.11 V139.23 H197.61 Z M206.60,139.23 V143.72 H211.09 V139.23 H206.60 Z M215.58,139.23 V143.72 H220.07 V139.23 H215.58 Z M224.56,139.23 V143.72 H229.05 V139.23 H224.56 Z M229.05,139.23 V143.72 H233.54 V139.23 H229.05 Z M233.54,139.23 V143.72 H238.04 V139.23 H233.54 Z M17.96,143.72 V148.21 H22.46 V143.72 H17.96 Z M22.46,143.72 V148.21 H26.95 V143.72 H22.46 Z M35.93,143.72 V148.21 H40.42 V143.72 H35.93 Z M44.91,143.72 V148.21 H49.40 V143.72 H44.91 Z M49.40,143.72 V148.21 H53.89 V143.72 H49.40 Z M53.89,143.72 V148.21 H58.39 V143.72 H53.89 Z M62.88,143.72 V148.21 H67.37 V143.72 H62.88 Z M80.84,143.72 V148.21 H85.33 V143.72 H80.84 Z M94.32,143.72 V148.21 H98.81 V143.72 H94.32 Z M103.30,143.72 V148.21 H107.79 V143.72 H103.30 Z M107.79,143.72 V148.21 H112.28 V143.72 H107.79 Z M116.77,143.72 V148.21 H121.26 V143.72 H116.77 Z M134.74,143.72 V148.21 H139.23 V143.72 H134.74 Z M139.23,143.72 V148.21 H143.72 V143.72 H139.23 Z M166.18,143.72 V148.21 H170.67 V143.72 H166.18 Z M170.67,143.72 V148.21 H175.16 V143.72 H170.67 Z M184.14,143.72 V148.21 H188.63 V143.72 H184.14 Z M188.63,143.72 V148.21 H193.12 V143.72 H188.63 Z M193.12,143.72 V148.21 H197.61 V143.72 H193.12 Z M211.09,143.72 V148.21 H215.58 V143.72 H211.09 Z M215.58,143.72 V148.21 H220.07 V143.72 H215.58 Z M229.05,143.72 V148.21 H233.54 V143.72 H229.05 Z M17.96,148.21 V152.70 H22.46 V148.21 H17.96 Z M22.46,148.21 V152.70 H26.95 V148.21 H22.46 Z M31.44,148.21 V152.70 H35.93 V148.21 H31.44 Z M40.42,148.21 V152.70 H44.91 V148.21 H40.42 Z M53.89,148.21 V152.70 H58.39 V148.21 H53.89 Z M58.39,148.21 V152.70 H62.88 V148.21 H58.39 Z M67.37,148.21 V152.70 H71.86 V148.21 H67.37 Z M71.86,148.21 V152.70 H76.35 V148.21 H71.86 Z M98.81,148.21 V152.70 H103.30 V148.21 H98.81 Z M112.28,148.21 V152.70 H116.77 V148.21 H112.28 Z M116.77,148.21 V152.70 H121.26 V148.21 H116.77 Z M121.26,148.21 V152.70 H125.75 V148.21 H121.26 Z M134.74,148.21 V152.70 H139.23 V148.21 H134.74 Z M139.23,148.21 V152.70 H143.72 V148.21 H139.23 Z M166.18,148.21 V152.70 H170.67 V148.21 H166.18 Z M170.67,148.21 V152.70 H175.16 V148.21 H170.67 Z M188.63,148.21 V152.70 H193.12 V148.21 H188.63 Z M193.12,148.21 V152.70 H197.61 V148.21 H193.12 Z M202.11,148.21 V152.70 H206.60 V148.21 H202.11 Z M215.58,148.21 V152.70 H220.07 V148.21 H215.58 Z M220.07,148.21 V152.70 H224.56 V148.21 H220.07 Z M224.56,148.21 V152.70 H229.05 V148.21 H224.56 Z M233.54,148.21 V152.70 H238.04 V148.21 H233.54 Z M26.95,152.70 V157.19 H31.44 V152.70 H26.95 Z M31.44,152.70 V157.19 H35.93 V152.70 H31.44 Z M40.42,152.70 V157.19 H44.91 V152.70 H40.42 Z M44.91,152.70 V157.19 H49.40 V152.70 H44.91 Z M58.39,152.70 V157.19 H62.88 V152.70 H58.39 Z M62.88,152.70 V157.19 H67.37 V152.70 H62.88 Z M67.37,152.70 V157.19 H71.86 V152.70 H67.37 Z M71.86,152.70 V157.19 H76.35 V152.70 H71.86 Z M85.33,152.70 V157.19 H89.82 V152.70 H85.33 Z M98.81,152.70 V157.19 H103.30 V152.70 H98.81 Z M112.28,152.70 V157.19 H116.77 V152.70 H112.28 Z M116.77,152.70 V157.19 H121.26 V152.70 H116.77 Z M125.75,152.70 V157.19 H130.25 V152.70 H125.75 Z M134.74,152.70 V157.19 H139.23 V152.70 H134.74 Z M139.23,152.70 V157.19 H143.72 V152.70 H139.23 Z M157.19,152.70 V157.19 H161.68 V152.70 H157.19 Z M161.68,152.70 V157.19 H166.18 V152.70 H161.68 Z M175.16,152.70 V157.19 H179.65 V152.70 H175.16 Z M179.65,152.70 V157.19 H184.14 V152.70 H179.65 Z M188.63,152.70 V157.19 H193.12 V152.70 H188.63 Z M193.12,152.70 V157.19 H197.61 V152.70 H193.12 Z M211.09,152.70 V157.19 H215.58 V152.70 H211.09 Z M215.58,152.70 V157.19 H220.07 V152.70 H215.58 Z M220.07,152.70 V157.19 H224.56 V152.70 H220.07 Z M224.56,152.70 V157.19 H229.05 V152.70 H224.56 Z M233.54,152.70 V157.19 H238.04 V152.70 H233.54 Z M22.46,157.19 V161.68 H26.95 V157.19 H22.46 Z M26.95,157.19 V161.68 H31.44 V157.19 H26.95 Z M31.44,157.19 V161.68 H35.93 V157.19 H31.44 Z M35.93,157.19 V161.68 H40.42 V157.19 H35.93 Z M49.40,157.19 V161.68 H53.89 V157.19 H49.40 Z M58.39,157.19 V161.68 H62.88 V157.19 H58.39 Z M62.88,157.19 V161.68 H67.37 V157.19 H62.88 Z M67.37,157.19 V161.68 H71.86 V157.19 H67.37 Z M71.86,157.19 V161.68 H76.35 V157.19 H71.86 Z M76.35,157.19 V161.68 H80.84 V157.19 H76.35 Z M85.33,157.19 V161.68 H89.82 V157.19 H85.33 Z M121.26,157.19 V161.68 H125.75 V157.19 H121.26 Z M125.75,157.19 V161.68 H130.25 V157.19 H125.75 Z M130.25,157.19 V161.68 H134.74 V157.19 H130.25 Z M134.74,157.19 V161.68 H139.23 V157.19 H134.74 Z M143.72,157.19 V161.68 H148.21 V157.19 H143.72 Z M148.21,157.19 V161.68 H152.70 V157.19 H148.21 Z M152.70,157.19 V161.68 H157.19 V157.19 H152.70 Z M170.67,157.19 V161.68 H175.16 V157.19 H170.67 Z M175.16,157.19 V161.68 H179.65 V157.19 H175.16 Z M179.65,157.19 V161.68 H184.14 V157.19 H179.65 Z M193.12,157.19 V161.68 H197.61 V157.19 H193.12 Z M197.61,157.19 V161.68 H202.11 V157.19 H197.61 Z M206.60,157.19 V161.68 H211.09 V157.19 H206.60 Z M215.58,157.19 V161.68 H220.07 V157.19 H215.58 Z M220.07,157.19 V161.68 H224.56 V157.19 H220.07 Z M224.56,157.19 V161.68 H229.05 V157.19 H224.56 Z M17.96,161.68 V166.18 H22.46 V161.68 H17.96 Z M40.42,161.68 V166.18 H44.91 V161.68 H40.42 Z M44.91,161.68 V166.18 H49.40 V161.68 H44.91 Z M58.39,161.68 V166.18 H62.88 V161.68 H58.39 Z M67.37,161.68 V166.18 H71.86 V161.68 H67.37 Z M89.82,161.68 V166.18 H94.32 V161.68 H89.82 Z M103.30,161.68 V166.18 H107.79 V161.68 H103.30 Z M121.26,161.68 V166.18 H125.75 V161.68 H121.26 Z M130.25,161.68 V166.18 H134.74 V161.68 H130.25 Z M134.74,161.68 V166.18 H139.23 V161.68 H134.74 Z M139.23,161.68 V166.18 H143.72 V161.68 H139.23 Z M143.72,161.68 V166.18 H148.21 V161.68 H143.72 Z M148.21,161.68 V166.18 H152.70 V161.68 H148.21 Z M152.70,161.68 V166.18 H157.19 V161.68 H152.70 Z M157.19,161.68 V166.18 H161.68 V161.68 H157.19 Z M161.68,161.68 V166.18 H166.18 V161.68 H161.68 Z M166.18,161.68 V166.18 H170.67 V161.68 H166.18 Z M184.14,161.68 V166.18 H188.63 V161.68 H184.14 Z M193.12,161.68 V166.18 H197.61 V161.68 H193.12 Z M197.61,161.68 V166.18 H202.11 V161.68 H197.61 Z M206.60,161.68 V166.18 H211.09 V161.68 H206.60 Z M220.07,161.68 V166.18 H224.56 V161.68 H220.07 Z M224.56,161.68 V166.18 H229.05 V161.68 H224.56 Z M26.95,166.18 V170.67 H31.44 V166.18 H26.95 Z M35.93,166.18 V170.67 H40.42 V166.18 H35.93 Z M40.42,166.18 V170.67 H44.91 V166.18 H40.42 Z M49.40,166.18 V170.67 H53.89 V166.18 H49.40 Z M53.89,166.18 V170.67 H58.39 V166.18 H53.89 Z M62.88,166.18 V170.67 H67.37 V166.18 H62.88 Z M67.37,166.18 V170.67 H71.86 V166.18 H67.37 Z M76.35,166.18 V170.67 H80.84 V166.18 H76.35 Z M85.33,166.18 V170.67 H89.82 V166.18 H85.33 Z M89.82,166.18 V170.67 H94.32 V166.18 H89.82 Z M121.26,166.18 V170.67 H125.75 V166.18 H121.26 Z M130.25,166.18 V170.67 H134.74 V166.18 H130.25 Z M134.74,166.18 V170.67 H139.23 V166.18 H134.74 Z M143.72,166.18 V170.67 H148.21 V166.18 H143.72 Z M152.70,166.18 V170.67 H157.19 V166.18 H152.70 Z M157.19,166.18 V170.67 H161.68 V166.18 H157.19 Z M184.14,166.18 V170.67 H188.63 V166.18 H184.14 Z M188.63,166.18 V170.67 H193.12 V166.18 H188.63 Z M193.12,166.18 V170.67 H197.61 V166.18 H193.12 Z M206.60,166.18 V170.67 H211.09 V166.18 H206.60 Z M220.07,166.18 V170.67 H224.56 V166.18 H220.07 Z M17.96,170.67 V175.16 H22.46 V170.67 H17.96 Z M31.44,170.67 V175.16 H35.93 V170.67 H31.44 Z M44.91,170.67 V175.16 H49.40 V170.67 H44.91 Z M49.40,170.67 V175.16 H53.89 V170.67 H49.40 Z M53.89,170.67 V175.16 H58.39 V170.67 H53.89 Z M62.88,170.67 V175.16 H67.37 V170.67 H62.88 Z M94.32,170.67 V175.16 H98.81 V170.67 H94.32 Z M116.77,170.67 V175.16 H121.26 V170.67 H116.77 Z M121.26,170.67 V175.16 H125.75 V170.67 H121.26 Z M139.23,170.67 V175.16 H143.72 V170.67 H139.23 Z M143.72,170.67 V175.16 H148.21 V170.67 H143.72 Z M148.21,170.67 V175.16 H152.70 V170.67 H148.21 Z M152.70,170.67 V175.16 H157.19 V170.67 H152.70 Z M157.19,170.67 V175.16 H161.68 V170.67 H157.19 Z M166.18,170.67 V175.16 H170.67 V170.67 H166.18 Z M175.16,170.67 V175.16 H179.65 V170.67 H175.16 Z M193.12,170.67 V175.16 H197.61 V170.67 H193.12 Z M202.11,170.67 V175.16 H206.60 V170.67 H202.11 Z M206.60,170.67 V175.16 H211.09 V170.67 H206.60 Z M215.58,170.67 V175.16 H220.07 V170.67 H215.58 Z M224.56,170.67 V175.16 H229.05 V170.67 H224.56 Z M229.05,170.67 V175.16 H233.54 V170.67 H229.05 Z M35.93,175.16 V179.65 H40.42 V175.16 H35.93 Z M49.40,175.16 V179.65 H53.89 V175.16 H49.40 Z M53.89,175.16 V179.65 H58.39 V175.16 H53.89 Z M62.88,175.16 V179.65 H67.37 V175.16 H62.88 Z M80.84,175.16 V179.65 H85.33 V175.16 H80.84 Z M85.33,175.16 V179.65 H89.82 V175.16 H85.33 Z M89.82,175.16 V179.65 H94.32 V175.16 H89.82 Z M94.32,175.16 V179.65 H98.81 V175.16 H94.32 Z M103.30,175.16 V179.65 H107.79 V175.16 H103.30 Z M116.77,175.16 V179.65 H121.26 V175.16 H116.77 Z M121.26,175.16 V179.65 H125.75 V175.16 H121.26 Z M125.75,175.16 V179.65 H130.25 V175.16 H125.75 Z M134.74,175.16 V179.65 H139.23 V175.16 H134.74 Z M143.72,175.16 V179.65 H148.21 V175.16 H143.72 Z M157.19,175.16 V179.65 H161.68 V175.16 H157.19 Z M161.68,175.16 V179.65 H166.18 V175.16 H161.68 Z M175.16,175.16 V179.65 H179.65 V175.16 H175.16 Z M179.65,175.16 V179.65 H184.14 V175.16 H179.65 Z M188.63,175.16 V179.65 H193.12 V175.16 H188.63 Z M206.60,175.16 V179.65 H211.09 V175.16 H206.60 Z M220.07,175.16 V179.65 H224.56 V175.16 H220.07 Z M224.56,175.16 V179.65 H229.05 V175.16 H224.56 Z M229.05,175.16 V179.65 H233.54 V175.16 H229.05 Z M22.46,179.65 V184.14 H26.95 V179.65 H22.46 Z M26.95,179.65 V184.14 H31.44 V179.65 H26.95 Z M31.44,179.65 V184.14 H35.93 V179.65 H31.44 Z M44.91,179.65 V184.14 H49.40 V179.65 H44.91 Z M49.40,179.65 V184.14 H53.89 V179.65 H49.40 Z M67.37,179.65 V184.14 H71.86 V179.65 H67.37 Z M71.86,179.65 V184.14 H76.35 V179.65 H71.86 Z M76.35,179.65 V184.14 H80.84 V179.65 H76.35 Z M80.84,179.65 V184.14 H85.33 V179.65 H80.84 Z M85.33,179.65 V184.14 H89.82 V179.65 H85.33 Z M98.81,179.65 V184.14 H103.30 V179.65 H98.81 Z M103.30,179.65 V184.14 H107.79 V179.65 H103.30 Z M121.26,179.65 V184.14 H125.75 V179.65 H121.26 Z M125.75,179.65 V184.14 H130.25 V179.65 H125.75 Z M148.21,179.65 V184.14 H152.70 V179.65 H148.21 Z M161.68,179.65 V184.14 H166.18 V179.65 H161.68 Z M170.67,179.65 V184.14 H175.16 V179.65 H170.67 Z M175.16,179.65 V184.14 H179.65 V179.65 H175.16 Z M179.65,179.65 V184.14 H184.14 V179.65 H179.65 Z M206.60,179.65 V184.14 H211.09 V179.65 H206.60 Z M211.09,179.65 V184.14 H215.58 V179.65 H211.09 Z M233.54,179.65 V184.14 H238.04 V179.65 H233.54 Z M26.95,184.14 V188.63 H31.44 V184.14 H26.95 Z M31.44,184.14 V188.63 H35.93 V184.14 H31.44 Z M35.93,184.14 V188.63 H40.42 V184.14 H35.93 Z M58.39,184.14 V188.63 H62.88 V184.14 H58.39 Z M62.88,184.14 V188.63 H67.37 V184.14 H62.88 Z M67.37,184.14 V188.63 H71.86 V184.14 H67.37 Z M76.35,184.14 V188.63 H80.84 V184.14 H76.35 Z M80.84,184.14 V188.63 H85.33 V184.14 H80.84 Z M89.82,184.14 V188.63 H94.32 V184.14 H89.82 Z M94.32,184.14 V188.63 H98.81 V184.14 H94.32 Z M98.81,184.14 V188.63 H103.30 V184.14 H98.81 Z M103.30,184.14 V188.63 H107.79 V184.14 H103.30 Z M107.79,184.14 V188.63 H112.28 V184.14 H107.79 Z M112.28,184.14 V188.63 H116.77 V184.14 H112.28 Z M116.77,184.14 V188.63 H121.26 V184.14 H116.77 Z M121.26,184.14 V188.63 H125.75 V184.14 H121.26 Z M125.75,184.14 V188.63 H130.25 V184.14 H125.75 Z M134.74,184.14 V188.63 H139.23 V184.14 H134.74 Z M139.23,184.14 V188.63 H143.72 V184.14 H139.23 Z M143.72,184.14 V188.63 H148.21 V184.14 H143.72 Z M157.19,184.14 V188.63 H161.68 V184.14 H157.19 Z M161.68,184.14 V188.63 H166.18 V184.14 H161.68 Z M166.18,184.14 V188.63 H170.67 V184.14 H166.18 Z M175.16,184.14 V188.63 H179.65 V184.14 H175.16 Z M184.14,184.14 V188.63 H188.63 V184.14 H184.14 Z M193.12,184.14 V188.63 H197.61 V184.14 H193.12 Z M197.61,184.14 V188.63 H202.11 V184.14 H197.61 Z M206.60,184.14 V188.63 H211.09 V184.14 H206.60 Z M211.09,184.14 V188.63 H215.58 V184.14 H211.09 Z M215.58,184.14 V188.63 H220.07 V184.14 H215.58 Z M220.07,184.14 V188.63 H224.56 V184.14 H220.07 Z M229.05,184.14 V188.63 H233.54 V184.14 H229.05 Z M233.54,184.14 V188.63 H238.04 V184.14 H233.54 Z M22.46,188.63 V193.12 H26.95 V188.63 H22.46 Z M40.42,188.63 V193.12 H44.91 V188.63 H40.42 Z M44.91,188.63 V193.12 H49.40 V188.63 H44.91 Z M49.40,188.63 V193.12 H53.89 V188.63 H49.40 Z M53.89,188.63 V193.12 H58.39 V188.63 H53.89 Z M76.35,188.63 V193.12 H80.84 V188.63 H76.35 Z M80.84,188.63 V193.12 H85.33 V188.63 H80.84 Z M89.82,188.63 V193.12 H94.32 V188.63 H89.82 Z M103.30,188.63 V193.12 H107.79 V188.63 H103.30 Z M121.26,188.63 V193.12 H125.75 V188.63 H121.26 Z M130.25,188.63 V193.12 H134.74 V188.63 H130.25 Z M134.74,188.63 V193.12 H139.23 V188.63 H134.74 Z M143.72,188.63 V193.12 H148.21 V188.63 H143.72 Z M152.70,188.63 V193.12 H157.19 V188.63 H152.70 Z M161.68,188.63 V193.12 H166.18 V188.63 H161.68 Z M166.18,188.63 V193.12 H170.67 V188.63 H166.18 Z M170.67,188.63 V193.12 H175.16 V188.63 H170.67 Z M184.14,188.63 V193.12 H188.63 V188.63 H184.14 Z M188.63,188.63 V193.12 H193.12 V188.63 H188.63 Z M193.12,188.63 V193.12 H197.61 V188.63 H193.12 Z M215.58,188.63 V193.12 H220.07 V188.63 H215.58 Z M22.46,193.12 V197.61 H26.95 V193.12 H22.46 Z M26.95,193.12 V197.61 H31.44 V193.12 H26.95 Z M31.44,193.12 V197.61 H35.93 V193.12 H31.44 Z M49.40,193.12 V197.61 H53.89 V193.12 H49.40 Z M67.37,193.12 V197.61 H71.86 V193.12 H67.37 Z M76.35,193.12 V197.61 H80.84 V193.12 H76.35 Z M80.84,193.12 V197.61 H85.33 V193.12 H80.84 Z M89.82,193.12 V197.61 H94.32 V193.12 H89.82 Z M98.81,193.12 V197.61 H103.30 V193.12 H98.81 Z M103.30,193.12 V197.61 H107.79 V193.12 H103.30 Z M107.79,193.12 V197.61 H112.28 V193.12 H107.79 Z M125.75,193.12 V197.61 H130.25 V193.12 H125.75 Z M130.25,193.12 V197.61 H134.74 V193.12 H130.25 Z M134.74,193.12 V197.61 H139.23 V193.12 H134.74 Z M139.23,193.12 V197.61 H143.72 V193.12 H139.23 Z M152.70,193.12 V197.61 H157.19 V193.12 H152.70 Z M157.19,193.12 V197.61 H161.68 V193.12 H157.19 Z M166.18,193.12 V197.61 H170.67 V193.12 H166.18 Z M170.67,193.12 V197.61 H175.16 V193.12 H170.67 Z M175.16,193.12 V197.61 H179.65 V193.12 H175.16 Z M179.65,193.12 V197.61 H184.14 V193.12 H179.65 Z M184.14,193.12 V197.61 H188.63 V193.12 H184.14 Z M188.63,193.12 V197.61 H193.12 V193.12 H188.63 Z M206.60,193.12 V197.61 H211.09 V193.12 H206.60 Z M220.07,193.12 V197.61 H224.56 V193.12 H220.07 Z M224.56,193.12 V197.61 H229.05 V193.12 H224.56 Z M17.96,197.61 V202.11 H22.46 V197.61 H17.96 Z M22.46,197.61 V202.11 H26.95 V197.61 H22.46 Z M26.95,197.61 V202.11 H31.44 V197.61 H26.95 Z M44.91,197.61 V202.11 H49.40 V197.61 H44.91 Z M53.89,197.61 V202.11 H58.39 V197.61 H53.89 Z M58.39,197.61 V202.11 H62.88 V197.61 H58.39 Z M62.88,197.61 V202.11 H67.37 V197.61 H62.88 Z M71.86,197.61 V202.11 H76.35 V197.61 H71.86 Z M85.33,197.61 V202.11 H89.82 V197.61 H85.33 Z M89.82,197.61 V202.11 H94.32 V197.61 H89.82 Z M94.32,197.61 V202.11 H98.81 V197.61 H94.32 Z M98.81,197.61 V202.11 H103.30 V197.61 H98.81 Z M103.30,197.61 V202.11 H107.79 V197.61 H103.30 Z M116.77,197.61 V202.11 H121.26 V197.61 H116.77 Z M121.26,197.61 V202.11 H125.75 V197.61 H121.26 Z M125.75,197.61 V202.11 H130.25 V197.61 H125.75 Z M130.25,197.61 V202.11 H134.74 V197.61 H130.25 Z M134.74,197.61 V202.11 H139.23 V197.61 H134.74 Z M143.72,197.61 V202.11 H148.21 V197.61 H143.72 Z M148.21,197.61 V202.11 H152.70 V197.61 H148.21 Z M157.19,197.61 V202.11 H161.68 V197.61 H157.19 Z M166.18,197.61 V202.11 H170.67 V197.61 H166.18 Z M184.14,197.61 V202.11 H188.63 V197.61 H184.14 Z M188.63,197.61 V202.11 H193.12 V197.61 H188.63 Z M193.12,197.61 V202.11 H197.61 V197.61 H193.12 Z M197.61,197.61 V202.11 H202.11 V197.61 H197.61 Z M202.11,197.61 V202.11 H206.60 V197.61 H202.11 Z M206.60,197.61 V202.11 H211.09 V197.61 H206.60 Z M211.09,197.61 V202.11 H215.58 V197.61 H211.09 Z M215.58,197.61 V202.11 H220.07 V197.61 H215.58 Z M224.56,197.61 V202.11 H229.05 V197.61 H224.56 Z M233.54,197.61 V202.11 H238.04 V197.61 H233.54 Z M58.39,202.11 V206.60 H62.88 V202.11 H58.39 Z M67.37,202.11 V206.60 H71.86 V202.11 H67.37 Z M71.86,202.11 V206.60 H76.35 V202.11 H71.86 Z M85.33,202.11 V206.60 H89.82 V202.11 H85.33 Z M94.32,202.11 V206.60 H98.81 V202.11 H94.32 Z M103.30,202.11 V206.60 H107.79 V202.11 H103.30 Z M112.28,202.11 V206.60 H116.77 V202.11 H112.28 Z M116.77,202.11 V206.60 H121.26 V202.11 H116.77 Z M134.74,202.11 V206.60 H139.23 V202.11 H134.74 Z M143.72,202.11 V206.60 H148.21 V202.11 H143.72 Z M157.19,202.11 V206.60 H161.68 V202.11 H157.19 Z M161.68,202.11 V206.60 H166.18 V202.11 H161.68 Z M170.67,202.11 V206.60 H175.16 V202.11 H170.67 Z M184.14,202.11 V206.60 H188.63 V202.11 H184.14 Z M188.63,202.11 V206.60 H193.12 V202.11 H188.63 Z M197.61,202.11 V206.60 H202.11 V202.11 H197.61 Z M215.58,202.11 V206.60 H220.07 V202.11 H215.58 Z M220.07,202.11 V206.60 H224.56 V202.11 H220.07 Z M224.56,202.11 V206.60 H229.05 V202.11 H224.56 Z M17.96,206.60 V211.09 H22.46 V206.60 H17.96 Z M22.46,206.60 V211.09 H26.95 V206.60 H22.46 Z M26.95,206.60 V211.09 H31.44 V206.60 H26.95 Z M31.44,206.60 V211.09 H35.93 V206.60 H31.44 Z M35.93,206.60 V211.09 H40.42 V206.60 H35.93 Z M40.42,206.60 V211.09 H44.91 V206.60 H40.42 Z M44.91,206.60 V211.09 H49.40 V206.60 H44.91 Z M53.89,206.60 V211.09 H58.39 V206.60 H53.89 Z M58.39,206.60 V211.09 H62.88 V206.60 H58.39 Z M62.88,206.60 V211.09 H67.37 V206.60 H62.88 Z M67.37,206.60 V211.09 H71.86 V206.60 H67.37 Z M71.86,206.60 V211.09 H76.35 V206.60 H71.86 Z M89.82,206.60 V211.09 H94.32 V206.60 H89.82 Z M107.79,206.60 V211.09 H112.28 V206.60 H107.79 Z M112.28,206.60 V211.09 H116.77 V206.60 H112.28 Z M116.77,206.60 V211.09 H121.26 V206.60 H116.77 Z M125.75,206.60 V211.09 H130.25 V206.60 H125.75 Z M134.74,206.60 V211.09 H139.23 V206.60 H134.74 Z M148.21,206.60 V211.09 H152.70 V206.60 H148.21 Z M152.70,206.60 V211.09 H157.19 V206.60 H152.70 Z M161.68,206.60 V211.09 H166.18 V206.60 H161.68 Z M166.18,206.60 V211.09 H170.67 V206.60 H166.18 Z M175.16,206.60 V211.09 H179.65 V206.60 H175.16 Z M197.61,206.60 V211.09 H202.11 V206.60 H197.61 Z M206.60,206.60 V211.09 H211.09 V206.60 H206.60 Z M215.58,206.60 V211.09 H220.07 V206.60 H215.58 Z M17.96,211.09 V215.58 H22.46 V211.09 H17.96 Z M44.91,211.09 V215.58 H49.40 V211.09 H44.91 Z M58.39,211.09 V215.58 H62.88 V211.09 H58.39 Z M62.88,211.09 V215.58 H67.37 V211.09 H62.88 Z M71.86,211.09 V215.58 H76.35 V211.09 H71.86 Z M76.35,211.09 V215.58 H80.84 V211.09 H76.35 Z M89.82,211.09 V215.58 H94.32 V211.09 H89.82 Z M94.32,211.09 V215.58 H98.81 V211.09 H94.32 Z M107.79,211.09 V215.58 H112.28 V211.09 H107.79 Z M116.77,211.09 V215.58 H121.26 V211.09 H116.77 Z M134.74,211.09 V215.58 H139.23 V211.09 H134.74 Z M157.19,211.09 V215.58 H161.68 V211.09 H157.19 Z M166.18,211.09 V215.58 H170.67 V211.09 H166.18 Z M170.67,211.09 V215.58 H175.16 V211.09 H170.67 Z M184.14,211.09 V215.58 H188.63 V211.09 H184.14 Z M193.12,211.09 V215.58 H197.61 V211.09 H193.12 Z M197.61,211.09 V215.58 H202.11 V211.09 H197.61 Z M215.58,211.09 V215.58 H220.07 V211.09 H215.58 Z M229.05,211.09 V215.58 H233.54 V211.09 H229.05 Z M233.54,211.09 V215.58 H238.04 V211.09 H233.54 Z M17.96,215.58 V220.07 H22.46 V215.58 H17.96 Z M26.95,215.58 V220.07 H31.44 V215.58 H26.95 Z M31.44,215.58 V220.07 H35.93 V215.58 H31.44 Z M35.93,215.58 V220.07 H40.42 V215.58 H35.93 Z M44.91,215.58 V220.07 H49.40 V215.58 H44.91 Z M62.88,215.58 V220.07 H67.37 V215.58 H62.88 Z M67.37,215.58 V220.07 H71.86 V215.58 H67.37 Z M76.35,215.58 V220.07 H80.84 V215.58 H76.35 Z M85.33,215.58 V220.07 H89.82 V215.58 H85.33 Z M89.82,215.58 V220.07 H94.32 V215.58 H89.82 Z M94.32,215.58 V220.07 H98.81 V215.58 H94.32 Z M98.81,215.58 V220.07 H103.30 V215.58 H98.81 Z M116.77,215.58 V220.07 H121.26 V215.58 H116.77 Z M121.26,215.58 V220.07 H125.75 V215.58 H121.26 Z M125.75,215.58 V220.07 H130.25 V215.58 H125.75 Z M130.25,215.58 V220.07 H134.74 V215.58 H130.25 Z M134.74,215.58 V220.07 H139.23 V215.58 H134.74 Z M152.70,215.58 V220.07 H157.19 V215.58 H152.70 Z M161.68,215.58 V220.07 H166.18 V215.58 H161.68 Z M170.67,215.58 V220.07 H175.16 V215.58 H170.67 Z M175.16,215.58 V220.07 H179.65 V215.58 H175.16 Z M184.14,215.58 V220.07 H188.63 V215.58 H184.14 Z M188.63,215.58 V220.07 H193.12 V215.58 H188.63 Z M193.12,215.58 V220.07 H197.61 V215.58 H193.12 Z M197.61,215.58 V220.07 H202.11 V215.58 H197.61 Z M202.11,215.58 V220.07 H206.60 V215.58 H202.11 Z M206.60,215.58 V220.07 H211.09 V215.58 H206.60 Z M211.09,215.58 V220.07 H215.58 V215.58 H211.09 Z M215.58,215.58 V220.07 H220.07 V215.58 H215.58 Z M220.07,215.58 V220.07 H224.56 V215.58 H220.07 Z M224.56,215.58 V220.07 H229.05 V215.58 H224.56 Z M233.54,215.58 V220.07 H238.04 V215.58 H233.54 Z M17.96,220.07 V224.56 H22.46 V220.07 H17.96 Z M26.95,220.07 V224.56 H31.44 V220.07 H26.95 Z M31.44,220.07 V224.56 H35.93 V220.07 H31.44 Z M35.93,220.07 V224.56 H40.42 V220.07 H35.93 Z M44.91,220.07 V224.56 H49.40 V220.07 H44.91 Z M53.89,220.07 V224.56 H58.39 V220.07 H53.89 Z M62.88,220.07 V224.56 H67.37 V220.07 H62.88 Z M67.37,220.07 V224.56 H71.86 V220.07 H67.37 Z M76.35,220.07 V224.56 H80.84 V220.07 H76.35 Z M80.84,220.07 V224.56 H85.33 V220.07 H80.84 Z M89.82,220.07 V224.56 H94.32 V220.07 H89.82 Z M94.32,220.07 V224.56 H98.81 V220.07 H94.32 Z M103.30,220.07 V224.56 H107.79 V220.07 H103.30 Z M107.79,220.07 V224.56 H112.28 V220.07 H107.79 Z M116.77,220.07 V224.56 H121.26 V220.07 H116.77 Z M121.26,220.07 V224.56 H125.75 V220.07 H121.26 Z M125.75,220.07 V224.56 H130.25 V220.07 H125.75 Z M130.25,220.07 V224.56 H134.74 V220.07 H130.25 Z M134.74,220.07 V224.56 H139.23 V220.07 H134.74 Z M143.72,220.07 V224.56 H148.21 V220.07 H143.72 Z M152.70,220.07 V224.56 H157.19 V220.07 H152.70 Z M157.19,220.07 V224.56 H161.68 V220.07 H157.19 Z M166.18,220.07 V224.56 H170.67 V220.07 H166.18 Z M175.16,220.07 V224.56 H179.65 V220.07 H175.16 Z M179.65,220.07 V224.56 H184.14 V220.07 H179.65 Z M184.14,220.07 V224.56 H188.63 V220.07 H184.14 Z M188.63,220.07 V224.56 H193.12 V220.07 H188.63 Z M193.12,220.07 V224.56 H197.61 V220.07 H193.12 Z M206.60,220.07 V224.56 H211.09 V220.07 H206.60 Z M224.56,220.07 V224.56 H229.05 V220.07 H224.56 Z M229.05,220.07 V224.56 H233.54 V220.07 H229.05 Z M233.54,220.07 V224.56 H238.04 V220.07 H233.54 Z M17.96,224.56 V229.05 H22.46 V224.56 H17.96 Z M26.95,224.56 V229.05 H31.44 V224.56 H26.95 Z M31.44,224.56 V229.05 H35.93 V224.56 H31.44 Z M35.93,224.56 V229.05 H40.42 V224.56 H35.93 Z M44.91,224.56 V229.05 H49.40 V224.56 H44.91 Z M58.39,224.56 V229.05 H62.88 V224.56 H58.39 Z M67.37,224.56 V229.05 H71.86 V224.56 H67.37 Z M71.86,224.56 V229.05 H76.35 V224.56 H71.86 Z M76.35,224.56 V229.05 H80.84 V224.56 H76.35 Z M89.82,224.56 V229.05 H94.32 V224.56 H89.82 Z M94.32,224.56 V229.05 H98.81 V224.56 H94.32 Z M112.28,224.56 V229.05 H116.77 V224.56 H112.28 Z M116.77,224.56 V229.05 H121.26 V224.56 H116.77 Z M121.26,224.56 V229.05 H125.75 V224.56 H121.26 Z M125.75,224.56 V229.05 H130.25 V224.56 H125.75 Z M134.74,224.56 V229.05 H139.23 V224.56 H134.74 Z M143.72,224.56 V229.05 H148.21 V224.56 H143.72 Z M148.21,224.56 V229.05 H152.70 V224.56 H148.21 Z M170.67,224.56 V229.05 H175.16 V224.56 H170.67 Z M175.16,224.56 V229.05 H179.65 V224.56 H175.16 Z M179.65,224.56 V229.05 H184.14 V224.56 H179.65 Z M184.14,224.56 V229.05 H188.63 V224.56 H184.14 Z M188.63,224.56 V229.05 H193.12 V224.56 H188.63 Z M197.61,224.56 V229.05 H202.11 V224.56 H197.61 Z M229.05,224.56 V229.05 H233.54 V224.56 H229.05 Z M233.54,224.56 V229.05 H238.04 V224.56 H233.54 Z M17.96,229.05 V233.54 H22.46 V229.05 H17.96 Z M44.91,229.05 V233.54 H49.40 V229.05 H44.91 Z M53.89,229.05 V233.54 H58.39 V229.05 H53.89 Z M67.37,229.05 V233.54 H71.86 V229.05 H67.37 Z M80.84,229.05 V233.54 H85.33 V229.05 H80.84 Z M85.33,229.05 V233.54 H89.82 V229.05 H85.33 Z M89.82,229.05 V233.54 H94.32 V229.05 H89.82 Z M98.81,229.05 V233.54 H103.30 V229.05 H98.81 Z M107.79,229.05 V233.54 H112.28 V229.05 H107.79 Z M130.25,229.05 V233.54 H134.74 V229.05 H130.25 Z M134.74,229.05 V233.54 H139.23 V229.05 H134.74 Z M152.70,229.05 V233.54 H157.19 V229.05 H152.70 Z M170.67,229.05 V233.54 H175.16 V229.05 H170.67 Z M179.65,229.05 V233.54 H184.14 V229.05 H179.65 Z M188.63,229.05 V233.54 H193.12 V229.05 H188.63 Z M193.12,229.05 V233.54 H197.61 V229.05 H193.12 Z M211.09,229.05 V233.54 H215.58 V229.05 H211.09 Z M215.58,229.05 V233.54 H220.07 V229.05 H215.58 Z M220.07,229.05 V233.54 H224.56 V229.05 H220.07 Z M233.54,229.05 V233.54 H238.04 V229.05 H233.54 Z M17.96,233.54 V238.04 H22.46 V233.54 H17.96 Z M22.46,233.54 V238.04 H26.95 V233.54 H22.46 Z M26.95,233.54 V238.04 H31.44 V233.54 H26.95 Z M31.44,233.54 V238.04 H35.93 V233.54 H31.44 Z M35.93,233.54 V238.04 H40.42 V233.54 H35.93 Z M40.42,233.54 V238.04 H44.91 V233.54 H40.42 Z M44.91,233.54 V238.04 H49.40 V233.54 H44.91 Z M53.89,233.54 V238.04 H58.39 V233.54 H53.89 Z M67.37,233.54 V238.04 H71.86 V233.54 H67.37 Z M71.86,233.54 V238.04 H76.35 V233.54 H71.86 Z M76.35,233.54 V238.04 H80.84 V233.54 H76.35 Z M94.32,233.54 V238.04 H98.81 V233.54 H94.32 Z M98.81,233.54 V238.04 H103.30 V233.54 H98.81 Z M107.79,233.54 V238.04 H112.28 V233.54 H107.79 Z M121.26,233.54 V238.04 H125.75 V233.54 H121.26 Z M125.75,233.54 V238.04 H130.25 V233.54 H125.75 Z M130.25,233.54 V238.04 H134.74 V233.54 H130.25 Z M143.72,233.54 V238.04 H148.21 V233.54 H143.72 Z M148.21,233.54 V238.04 H152.70 V233.54 H148.21 Z M152.70,233.54 V238.04 H157.19 V233.54 H152.70 Z M161.68,233.54 V238.04 H166.18 V233.54 H161.68 Z M184.14,233.54 V238.04 H188.63 V233.54 H184.14 Z M193.12,233.54 V238.04 H197.61 V233.54 H193.12 Z M202.11,233.54 V238.04 H206.60 V233.54 H202.11 Z M206.60,233.54 V238.04 H211.09 V233.54 H206.60 Z M233.54,233.54 V238.04 H238.04 V233.54 H233.54 Z "></path></svg>
